<svg version="1.2" xmlns="http://www.w3.org/2000/svg" viewBox="0 0 100 100" width="100" height="100"><style>.a{fill:#fff}.b{fill:#f00}</style><path class="a" d="m50 100c-27.7 0-50-22.4-50-50 0-27.7 22.3-50 50-50 27.6 0 50 22.3 50 50 0 27.6-22.4 50-50 50z"/><path class="b" d="m49-15h4v25h2v11h4l1 4h-18l1-4h4v-11h2m-13 17l-1 4h32l-1-4m-21 6v4h4v-4m4 0v4h4v-4m4 0h4v4h-4m-20-4m0 4m0 0zm0 0m0-4h-4v4h4m-4 2h28l-2 4h-18-6m-10 11h44l1 6h-46m14-17l-7 11h6l7-11zm7 0h4v11h-4m5-11h6l7 11h-6m-7 10h5v11h-5m-11-11h5v11h-5m-11-11h5v11h-5m33-11h5v11h-5m-34 4h40l-1 6h-38m10-1h5v20h-5m13-20h5v20h-5"/></svg>