<svg version="1.2" xmlns="http://www.w3.org/2000/svg" viewBox="0 0 100 100" width="100" height="100"><style>.a{fill:#fff}.b{fill:#f00}</style><path class="a" d="m50 100c-27.7 0-50-22.3-50-50 0-27.7 22.3-50 50-50 27.7 0 50 22.3 50 50 0 27.7-22.3 50-50 50z"/><path class="b" d="m48-15h4v25h2v11h5v4h-18v-4h5v-11h2m17 17l1 4h-32l1-4m13 6v4h-4v-4m12 0v4h-4v-4m8 0h4v4h-4m-20-4m0 4m0 0zm0 0m0 0h-4v-4h4m-4 6h28l-2 4h-18-6m-10 11h44l1 6h-46m20-17l-10 11h-6l10-11zm1 0h4v11h-4m5-11h6l10 11h-6m-10 10h5v11h-5m-11-11h5v11h-5m-11-11h5v11h-5m33-11h5v11h-5m-34 4h40l-1 6h-38m10-1h5v20h-5m13-20h5v20h-5"/></svg>